<svg width="30" height="31" viewBox="0 0 30 31" fill="none" xmlns="http://www.w3.org/2000/svg">
<g clip-path="url(#clip0_34_94)">
<path d="M25.9574 0.5H4.0428C1.8102 0.5 0.000244141 2.30989 0.000244141 4.54256V26.4573C0.000244141 28.69 1.81013 30.4999 4.0428 30.4999H14.851L14.8694 19.7795H12.0843C11.7223 19.7795 11.4285 19.4869 11.4271 19.1249L11.4138 15.6693C11.4124 15.3054 11.707 15.0096 12.071 15.0096H14.851V11.6706C14.851 7.79576 17.2176 5.68587 20.6742 5.68587H23.5106C23.8735 5.68587 24.1678 5.98008 24.1678 6.34305V9.25684C24.1678 9.61967 23.8738 9.9138 23.511 9.91402L21.7703 9.91483C19.8905 9.91483 19.5265 10.8081 19.5265 12.119V15.0097H23.6571C24.0507 15.0097 24.3561 15.3534 24.3097 15.7442L23.9001 19.1998C23.8609 19.5305 23.5805 19.7797 23.2476 19.7797H19.5449L19.5265 30.5H25.9575C28.1901 30.5 30 28.6901 30 26.4575V4.54256C29.9999 2.30989 28.1901 0.5 25.9574 0.5Z" fill="#D9D9D9"/>
</g>
<defs>
<clipPath id="clip0_34_94">
<rect width="30" height="30" fill="white" transform="translate(0 0.5)"/>
</clipPath>
</defs>
</svg>
