<svg width="30" height="31" viewBox="0 0 30 31" fill="none" xmlns="http://www.w3.org/2000/svg">
<path d="M21.0628 0.5H8.93716C4.00919 0.5 0 4.50919 0 9.43716V21.5628C0 26.4908 4.00919 30.5 8.93716 30.5H21.0628C25.9908 30.5 30 26.4908 30 21.5628V9.43716C29.9999 4.50919 25.9908 0.5 21.0628 0.5ZM26.982 21.5628C26.982 24.8319 24.3319 27.482 21.0628 27.482H8.93716C5.66813 27.482 3.018 24.8319 3.018 21.5628V9.43716C3.018 6.16807 5.66813 3.518 8.93716 3.518H21.0628C24.3319 3.518 26.982 6.16807 26.982 9.43716V21.5628Z" fill="#D9D9D9"/>
<path d="M15.0003 7.74072C10.7219 7.74072 7.24121 11.2214 7.24121 15.4997C7.24121 19.778 10.7219 23.2588 15.0003 23.2588C19.2786 23.2588 22.7593 19.7781 22.7593 15.4997C22.7593 11.2214 19.2786 7.74072 15.0003 7.74072ZM15.0003 20.2409C12.3818 20.2409 10.2592 18.1182 10.2592 15.4998C10.2592 12.8813 12.3819 10.7587 15.0003 10.7587C17.6187 10.7587 19.7413 12.8813 19.7413 15.4998C19.7413 18.1182 17.6187 20.2409 15.0003 20.2409Z" fill="#D9D9D9"/>
<path d="M22.7743 9.65841C23.8011 9.65841 24.6335 8.826 24.6335 7.79917C24.6335 6.77235 23.8011 5.93994 22.7743 5.93994C21.7474 5.93994 20.915 6.77235 20.915 7.79917C20.915 8.826 21.7474 9.65841 22.7743 9.65841Z" fill="#D9D9D9"/>
</svg>
