<svg width="30" height="31" viewBox="0 0 30 31" fill="none" xmlns="http://www.w3.org/2000/svg">
<g clip-path="url(#clip0_34_92)">
<path d="M27.2863 0.5H2.71374C1.215 0.5 0 1.715 0 3.21374V27.7862C0 29.285 1.215 30.5 2.71374 30.5H27.2862C28.785 30.5 30 29.285 30 27.7862V3.21374C30 1.715 28.785 0.5 27.2863 0.5ZM9.28327 26.404C9.28327 26.8402 8.92971 27.1937 8.49353 27.1937H5.13181C4.69563 27.1937 4.34207 26.8402 4.34207 26.404V12.3118C4.34207 11.8756 4.69563 11.522 5.13181 11.522H8.49353C8.92971 11.522 9.28327 11.8756 9.28327 12.3118V26.404ZM6.81267 10.1936C5.04887 10.1936 3.61901 8.76374 3.61901 6.99995C3.61901 5.23615 5.04887 3.80628 6.81267 3.80628C8.57647 3.80628 10.0063 5.23615 10.0063 6.99995C10.0063 8.76374 8.57654 10.1936 6.81267 10.1936ZM26.8516 26.4676C26.8516 26.8686 26.5264 27.1937 26.1254 27.1937H22.5181C22.1171 27.1937 21.7919 26.8686 21.7919 26.4676V19.8575C21.7919 18.8715 22.0812 15.5365 19.215 15.5365C16.9918 15.5365 16.5408 17.8192 16.4503 18.8436V26.4676C16.4503 26.8686 16.1252 27.1937 15.7242 27.1937H12.2352C11.8342 27.1937 11.5091 26.8686 11.5091 26.4676V12.2481C11.5091 11.8471 11.8342 11.522 12.2352 11.522H15.7242C16.1252 11.522 16.4503 11.8471 16.4503 12.2481V13.4776C17.2747 12.2404 18.4998 11.2855 21.1083 11.2855C26.8846 11.2855 26.8516 16.6821 26.8516 19.6472V26.4676Z" fill="#D9D9D9"/>
</g>
<defs>
<clipPath id="clip0_34_92">
<rect width="30" height="30" fill="white" transform="translate(0 0.5)"/>
</clipPath>
</defs>
</svg>
