<svg width="1100" height="800" viewBox="0 0 1100 800" fill="none" xmlns="http://www.w3.org/2000/svg">
<g clip-path="url(#clip0_90_25)">
<path d="M46.9418 758.636L46.9377 758.634C42.8517 757.284 40.7924 755.447 40.0531 754.564C40.0344 754.542 40.0167 754.52 40 754.5V444.443V431.43V431.429V431.429V431.428V431.427V431.426V431.425V431.423V431.422V431.42V431.418V431.416V431.414V431.412V431.409V431.407V431.404V431.401V431.398V431.394V431.391V431.387V431.383V431.379V431.375V431.371V431.366V431.362V431.357V431.352V431.347V431.341V431.336V431.33V431.324V431.318V431.312V431.305V431.299V431.292V431.285V431.278V431.27V431.263V431.255V431.247V431.239V431.231V431.223V431.214V431.206V431.197V431.187V431.178V431.169V431.159V431.149V431.139V431.129V431.118V431.108V431.097V431.086V431.075V431.064V431.052V431.04V431.028V431.016V431.004V430.991V430.979V430.966V430.953V430.939V430.926V430.912V430.898V430.884V430.87V430.856V430.841V430.826V430.811V430.796V430.781V430.765V430.749V430.733V430.717V430.7V430.684V430.667V430.65V430.633V430.615V430.598V430.58V430.562V430.543V430.525V430.506V430.487V430.468V430.449V430.429V430.41V430.39V430.37V430.349V430.329V430.308V430.287V430.266V430.244V430.223V430.201V430.179V430.156V430.134V430.111V430.088V430.065V430.042V430.018V429.994V429.97V429.946V429.922V429.897V429.872V429.847V429.822V429.796V429.77V429.744V429.718V429.692V429.665V429.638V429.611V429.584V429.556V429.528V429.5V429.472V429.444V429.415V429.386V429.357V429.327V429.298V429.268V429.238V429.207V429.177V429.146V429.115V429.084V429.052V429.021V428.989V428.956V428.924V428.891V428.858V428.825V428.792V428.758V428.724V428.69V428.656V428.621V428.586V428.551V428.516V428.48V428.445V428.409V428.372V428.336V428.299V428.262V428.225V428.187V428.149V428.111V428.073V428.035V427.996V427.957V427.917V427.878V427.838V427.798V427.758V427.717V427.677V427.636V427.594V427.553V427.511V427.469V427.427V427.384V427.341V427.298V427.255V427.211V427.167V427.123V427.079V427.034V426.989V426.944V426.899V426.853V426.807V426.761V426.715V426.668V426.621V426.574V426.526V426.478V426.43V426.382V426.333V426.285V426.235V426.186V426.136V426.086V426.036V425.986V425.935V425.884V425.833V425.781V425.729V425.677V425.625V425.572V425.519V425.466V425.413V425.359V425.305V425.25V425.196V425.141V425.086V425.03V424.975V424.919V424.862V424.806V424.749V424.692V424.635V424.577V424.519V424.461V424.402V424.343V424.284V424.225V424.165V424.105V424.045V423.984V423.924V423.862V423.801V423.739V423.677V423.615V423.553V423.49V423.427V423.363V423.299V423.235V423.171V423.106V423.041V422.976V422.911V422.845V422.779V422.712V422.646V422.579V422.511V422.444V422.376V422.308V422.239V422.17V422.101V422.032V421.962V421.892V421.822V421.751V421.68V421.609V421.537V421.466V421.393V421.321V421.248V421.175V421.102V421.028V420.954V420.88V420.805V420.73V420.655V420.579V420.504V420.427V420.351V420.274V420.197V420.119V420.042V419.964V419.885V419.807V419.728V419.648V419.569V419.489V419.408V419.328V419.247V419.165V419.084V419.002V418.92V418.837V418.754V418.671V418.588V418.504V418.42V418.335V418.25V418.165V418.08V417.994V417.908V417.821V417.734V417.647V417.56V417.472V417.384V417.295V417.207V417.118V417.028V416.938V416.848V416.758V416.667V416.576V416.484V416.393V416.301V416.208V416.115V416.022V415.929V415.835V415.741V415.646V415.551V415.456V415.361V415.265V415.169V415.072V414.975V414.878V414.78V414.683V414.584V414.486V414.387V414.287V414.188V414.088V413.987V413.887V413.786V413.684V413.583V413.48V413.378V413.275V413.172V413.069V412.965V412.86V412.756V412.651V412.546V412.44V412.334V412.228V412.121V412.014V411.907V411.799V411.691V411.582V411.473V411.364V411.255V411.145V411.034V410.924V410.813V410.701V410.589V410.477V410.365V410.252V410.139V410.025V409.911V409.797V409.682V409.567V409.452V409.336V409.22V409.103V408.987V408.869V408.752V408.634V408.515V408.396V408.277V408.158V408.038V407.918V407.797V407.676V407.555V407.433V407.311V407.188V407.065V406.942V406.819V406.695V406.57V406.445V406.32V406.195V406.069V405.942V405.816V405.689V405.561V405.433V405.305V405.177V405.048V404.918V404.788V404.658V404.528V404.397V404.265V404.134V404.002V403.869V403.736V403.603V403.469V403.335V403.201V403.066V402.931V402.795V402.659V402.523V402.386V402.249V402.111V401.973V401.834V401.696V401.556V401.417V401.277V401.136V400.996V400.854V400.713V400.571V400.428V400.286V400.142V399.999V375.082L40 370.032V368.917V368.657V368.594V368.579V368.575V368.574L40 355.555V45.4999C40.0171 45.479 40.0351 45.4571 40.0543 45.4342C40.7946 44.5501 42.854 42.7134 46.9368 41.3641L46.9398 41.3631C56.0727 38.3441 65.6866 40.7352 70.1355 44.285L515.736 399.84L515.746 399.849C515.811 399.901 515.874 399.952 515.934 400.002C515.871 400.055 515.805 400.108 515.736 400.163L70.1355 755.718C65.6904 759.265 56.0783 761.656 46.9418 758.636Z" stroke="black" stroke-width="80"/>
<path d="M589.942 758.636L589.938 758.634C585.852 757.284 583.792 755.447 583.053 754.564C583.034 754.542 583.017 754.52 583 754.5V444.443V431.43V431.43V431.429V431.429V431.428V431.427V431.426V431.425V431.423V431.422V431.42V431.418V431.416V431.414V431.412V431.409V431.407V431.404V431.401V431.398V431.394V431.391V431.387V431.383V431.379V431.375V431.371V431.366V431.362V431.357V431.352V431.347V431.341V431.336V431.33V431.324V431.318V431.312V431.305V431.299V431.292V431.285V431.278V431.27V431.263V431.255V431.247V431.239V431.231V431.223V431.214V431.205V431.197V431.187V431.178V431.169V431.159V431.149V431.139V431.129V431.118V431.108V431.097V431.086V431.075V431.064V431.052V431.04V431.028V431.016V431.004V430.991V430.979V430.966V430.953V430.939V430.926V430.912V430.898V430.884V430.87V430.856V430.841V430.826V430.811V430.796V430.781V430.765V430.749V430.733V430.717V430.7V430.684V430.667V430.65V430.633V430.615V430.597V430.58V430.562V430.543V430.525V430.506V430.487V430.468V430.449V430.429V430.41V430.39V430.37V430.349V430.329V430.308V430.287V430.266V430.244V430.223V430.201V430.179V430.156V430.134V430.111V430.088V430.065V430.042V430.018V429.994V429.97V429.946V429.922V429.897V429.872V429.847V429.822V429.796V429.77V429.744V429.718V429.692V429.665V429.638V429.611V429.584V429.556V429.528V429.5V429.472V429.444V429.415V429.386V429.357V429.327V429.298V429.268V429.238V429.207V429.177V429.146V429.115V429.084V429.052V429.02V428.989V428.956V428.924V428.891V428.858V428.825V428.792V428.758V428.724V428.69V428.656V428.621V428.586V428.551V428.516V428.48V428.445V428.409V428.372V428.336V428.299V428.262V428.225V428.187V428.149V428.111V428.073V428.035V427.996V427.957V427.917V427.878V427.838V427.798V427.758V427.717V427.677V427.636V427.594V427.553V427.511V427.469V427.427V427.384V427.341V427.298V427.255V427.211V427.167V427.123V427.079V427.034V426.989V426.944V426.899V426.853V426.807V426.761V426.715V426.668V426.621V426.574V426.526V426.478V426.43V426.382V426.333V426.285V426.235V426.186V426.136V426.086V426.036V425.986V425.935V425.884V425.833V425.781V425.729V425.677V425.625V425.572V425.519V425.466V425.413V425.359V425.305V425.25V425.196V425.141V425.086V425.03V424.975V424.919V424.862V424.806V424.749V424.692V424.635V424.577V424.519V424.461V424.402V424.343V424.284V424.225V424.165V424.105V424.045V423.984V423.924V423.862V423.801V423.739V423.677V423.615V423.553V423.49V423.427V423.363V423.299V423.235V423.171V423.106V423.041V422.976V422.911V422.845V422.779V422.712V422.646V422.579V422.511V422.444V422.376V422.308V422.239V422.17V422.101V422.032V421.962V421.892V421.822V421.751V421.68V421.609V421.537V421.466V421.393V421.321V421.248V421.175V421.102V421.028V420.954V420.88V420.805V420.73V420.655V420.579V420.504V420.427V420.351V420.274V420.197V420.119V420.042V419.964V419.885V419.807V419.728V419.648V419.569V419.489V419.408V419.328V419.247V419.165V419.084V419.002V418.92V418.837V418.754V418.671V418.588V418.504V418.42V418.335V418.25V418.165V418.08V417.994V417.908V417.821V417.734V417.647V417.56V417.472V417.384V417.295V417.207V417.118V417.028V416.938V416.848V416.758V416.667V416.576V416.484V416.393V416.301V416.208V416.115V416.022V415.929V415.835V415.741V415.646V415.551V415.456V415.361V415.265V415.169V415.072V414.975V414.878V414.78V414.683V414.584V414.486V414.387V414.287V414.188V414.088V413.987V413.887V413.786V413.684V413.583V413.48V413.378V413.275V413.172V413.069V412.965V412.86V412.756V412.651V412.546V412.44V412.334V412.228V412.121V412.014V411.907V411.799V411.691V411.582V411.473V411.364V411.255V411.145V411.034V410.924V410.813V410.701V410.589V410.477V410.365V410.252V410.139V410.025V409.911V409.797V409.682V409.567V409.452V409.336V409.22V409.103V408.987V408.869V408.752V408.634V408.515V408.397V408.277V408.158V408.038V407.918V407.797V407.676V407.555V407.433V407.311V407.188V407.065V406.942V406.819V406.695V406.57V406.445V406.32V406.195V406.069V405.942V405.816V405.689V405.561V405.433V405.305V405.177V405.048V404.918V404.788V404.658V404.528V404.397V404.265V404.134V404.002V403.869V403.736V403.603V403.469V403.335V403.201V403.066V402.931V402.795V402.659V402.523V402.386V402.249V402.111V401.973V401.835V401.696V401.556V401.417V401.277V401.136V400.996V400.854V400.713V400.571V400.428V400.286V400.142V399.999V375.082L583 370.032V368.917V368.657V368.594V368.579V368.575V368.574L583 355.555V45.4999C583.017 45.479 583.035 45.4571 583.054 45.4342C583.795 44.5501 585.854 42.7134 589.937 41.3641L589.94 41.3631C599.073 38.3441 608.687 40.7352 613.135 44.285L1058.74 399.84L1058.75 399.849C1058.81 399.901 1058.87 399.952 1058.93 400.002C1058.87 400.055 1058.8 400.108 1058.74 400.163L613.136 755.718C608.69 759.265 599.078 761.656 589.942 758.636Z" stroke="black" stroke-width="80"/>
</g>
<defs>
<clipPath id="clip0_90_25">
<rect width="1100" height="800" fill="white"/>
</clipPath>
</defs>
</svg>
